<svg id="Group_3948" data-name="Group 3948" xmlns="http://www.w3.org/2000/svg" xmlns:xlink="http://www.w3.org/1999/xlink" width="150" height="150" viewBox="0 0 150 150">
  <defs>
    <clipPath id="clip-path">
      <rect id="Rectangle_6158" data-name="Rectangle 6158" width="80" height="80" transform="translate(35 35)" fill="#ffc797"/>
    </clipPath>
  </defs>
  <rect id="Rectangle_6157" data-name="Rectangle 6157" width="150" height="150" rx="75" fill="#28293d"/>
  <g id="Mask_Group_113" data-name="Mask Group 113" clip-path="url(#clip-path)">
    <g id="noun-color-5413151" transform="translate(25.942 37.555)">
      <path id="Path_3693" data-name="Path 3693" d="M47.822,5.736a31.94,31.94,0,0,0-4.563,63.33,6.826,6.826,0,0,0,1.209.109,6.529,6.529,0,0,0,4.189-1.51,7.909,7.909,0,0,0,2.687-6.24V55.468a2.19,2.19,0,0,1,.865-1.768,2.432,2.432,0,0,1,2.115-.406c8.379,2.224,15.741,1.341,20.721-2.487A15.878,15.878,0,0,0,81,37.651,31.939,31.939,0,0,0,47.822,5.738ZM72.263,47.19c-3.771,2.9-9.878,3.518-16.773,1.693h0a6.96,6.96,0,0,0-6.064,1.2,6.751,6.751,0,0,0-2.644,5.384v5.956a3.46,3.46,0,0,1-1.038,2.738,1.959,1.959,0,0,1-1.654.42,27.515,27.515,0,0,1-22.383-28A27.809,27.809,0,0,1,48,10.294c.359-.02.721-.02,1.068-.02A27.377,27.377,0,0,1,76.44,37.649a11.338,11.338,0,0,1-4.177,9.541Z" transform="translate(0 0)" fill="#ffc797"/>
      <path id="Path_3694" data-name="Path 3694" d="M59.665,20.553a3.422,3.422,0,1,1-3.422-3.422,3.422,3.422,0,0,1,3.422,3.422" transform="translate(-7.179 -2.295)" fill="#ffc797"/>
      <path id="Path_3695" data-name="Path 3695" d="M35.4,44.822A3.422,3.422,0,1,1,31.974,41.4,3.422,3.422,0,0,1,35.4,44.822" transform="translate(-2.302 -7.172)" fill="#ffc797"/>
      <path id="Path_3696" data-name="Path 3696" d="M76.825,27.662A3.422,3.422,0,1,1,73.4,24.24a3.422,3.422,0,0,1,3.422,3.422" transform="translate(-10.628 -3.723)" fill="#ffc797"/>
      <path id="Path_3697" data-name="Path 3697" d="M42.5,27.662a3.422,3.422,0,1,1-3.422-3.422A3.422,3.422,0,0,1,42.5,27.662" transform="translate(-3.731 -3.723)" fill="#ffc797"/>
    </g>
  </g>
</svg>
