<svg id="Group_3947" data-name="Group 3947" xmlns="http://www.w3.org/2000/svg" xmlns:xlink="http://www.w3.org/1999/xlink" width="150" height="150" viewBox="0 0 150 150">
  <defs>
    <clipPath id="clip-path">
      <rect id="Rectangle_6158" data-name="Rectangle 6158" width="80" height="80" transform="translate(35 35)" fill="#9eb8ff"/>
    </clipPath>
  </defs>
  <rect id="Rectangle_6157" data-name="Rectangle 6157" width="150" height="150" rx="75" fill="#28293d"/>
  <g id="Mask_Group_110" data-name="Mask Group 110" clip-path="url(#clip-path)">
    <g id="noun-night-1911165" transform="translate(24.079 33.904)">
      <path id="Path_3616" data-name="Path 3616" d="M74.194,56.524A22.566,22.566,0,0,1,55.876,15.941a2.433,2.433,0,0,0-1.262-4.457,29.623,29.623,0,0,0-13.329,2.633A29.928,29.928,0,1,0,65.909,68.673,29.634,29.634,0,0,0,76.7,60.42a2.434,2.434,0,0,0-2.508-3.9ZM63.907,64.238A25.062,25.062,0,0,1,43.286,18.552a25.181,25.181,0,0,1,4.029-1.425A27.471,27.471,0,0,0,67.642,62.16a25.416,25.416,0,0,1-3.735,2.077Z" transform="translate(0 0)" fill="#9eb8ff"/>
    </g>
  </g>
</svg>
