<svg id="Group_3947" data-name="Group 3947" xmlns="http://www.w3.org/2000/svg" xmlns:xlink="http://www.w3.org/1999/xlink" width="150" height="150" viewBox="0 0 150 150">
  <defs>
    <clipPath id="clip-path">
      <rect id="Rectangle_6158" data-name="Rectangle 6158" width="80" height="80" transform="translate(35 35)" fill="#c6f696"/>
    </clipPath>
  </defs>
  <rect id="Rectangle_6157" data-name="Rectangle 6157" width="150" height="150" rx="75" fill="#28293d"/>
  <g id="Mask_Group_112" data-name="Mask Group 112" clip-path="url(#clip-path)">
    <g id="noun-customise-3080137" transform="translate(16.009 26.659)">
      <path id="Path_3655" data-name="Path 3655" d="M41.325,44.487a10.364,10.364,0,0,0-1.011-.311V20.193a2.221,2.221,0,0,0-4.441,0V44.177a8.654,8.654,0,0,0-1.555.544,9.138,9.138,0,0,0,1.555,17.2V77.466a2.221,2.221,0,1,0,4.441,0V61.92a9.15,9.15,0,0,0,1.011-17.444ZM40.037,57.356a4.719,4.719,0,1,1-1.943-9.016,4.606,4.606,0,0,1,1.665.311,4.708,4.708,0,0,1,.278,8.705Z" transform="translate(0 0.001)" fill="#c6f696"/>
      <path id="Path_3656" data-name="Path 3656" d="M71.248,48.927a10.363,10.363,0,0,0-1.011-.311V20.191a2.221,2.221,0,1,0-4.441,0V48.617a8.848,8.848,0,0,0-1.554.544A9.138,9.138,0,0,0,65.8,66.36v11.1a2.221,2.221,0,0,0,4.441,0V66.36a9.149,9.149,0,0,0,1.011-17.444ZM69.96,61.8a4.719,4.719,0,1,1-1.943-9.015,4.59,4.59,0,0,1,1.666.311A4.708,4.708,0,0,1,69.96,61.8Z" transform="translate(11.139)" fill="#c6f696"/>
      <path id="Path_3657" data-name="Path 3657" d="M61.392,32.795a9.146,9.146,0,0,0-6.118-5.063v-7.54a2.221,2.221,0,1,0-4.441,0v7.54a9.154,9.154,0,0,0-1.011,17.443,8.709,8.709,0,0,0,1.011.322V77.466a2.221,2.221,0,0,0,4.441,0V45.5a9.488,9.488,0,0,0,1.554-.533A9.172,9.172,0,0,0,61.4,32.839Zm-3.9,5.44a4.713,4.713,0,1,1-6.362-5.962,4.8,4.8,0,0,1,1.921-.41,4.718,4.718,0,0,1,4.441,6.373Z" transform="translate(5.571 0)" fill="#c6f696"/>
    </g>
  </g>
</svg>
